# xmcd
#
# Track frame offsets:
#	150
#	14837
#	30825
#	55317
#	71795
#	91797
#	104445
#	122597
#	140442
#	152862
#	166372
#	182555
#	198250
#	216012
#	232772
#	247077
#	269010
#	286180
#	298327
#	310212
#
# Disc length: 4334 seconds
#
# Revision: 4
# Processed by: cddbd v1.5.1PL0 Copyright (c) Steve Scherf et al.
# Submitted via: audiograbber 1.83.01
#
DISCID=2710ec14
DTITLE=Various Artist - Boot Scootin' 11
DYEAR=1900
DGENRE=Country
TTITLE0=Rednex - Cotton Eye Joe [Original Single Version]
TTITLE1=George Strait - I Cross My Heart
TTITLE2=Ricky Lynn Gregg - If I Had A Cheatin' Heart [Club Mix]
TTITLE3=Alabama - Forever's As Far As I'll Go
TTITLE4=Smokin' Armadillos - I'm A Cowboy
TTITLE5=Trisha Yearwood - Wrong Side Of Memphis
TTITLE6=Alan Jackson - Who's Cheatin' Who
TTITLE7=Sammy Kershaw - I Buy Her Roses
TTITLE8=Ray Price - Release Me
TTITLE9=Rhett Akins - KISSING
TTITLE10=Garth Brooks - American Honky-Tonk Bar Association
TTITLE11=Sawyer Brown - Hard To Say
TTITLE12=Judds - Love Can Build A Bridge
TTITLE13=Ty Herndon - Love At 90 Miles An Hour
TTITLE14=Mark Chesnutt - Bubba Shot The Jukebox
TTITLE15=Osborne Brothers - Rocky Top [Championship Mix]
TTITLE16=Suzy Bogguss - Cross My Broken Heart
TTITLE17=Neal McCoy - Mudslide
TTITLE18=Martina McBride - My Baby Loves Me
TTITLE19=George Strait - All My Ex's Live In Texas
EXTD=
EXTT0=
EXTT1=
EXTT2=
EXTT3=
EXTT4=
EXTT5=
EXTT6=
EXTT7=
EXTT8=
EXTT9=
EXTT10=
EXTT11=
EXTT12=
EXTT13=
EXTT14=
EXTT15=
EXTT16=
EXTT17=
EXTT18=
EXTT19=
PLAYORDER=
